<?xml version="1.0" encoding="UTF-8" standalone="no"?>
<svg
   xmlns:dc="http://purl.org/dc/elements/1.1/"
   xmlns:cc="http://creativecommons.org/ns#"
   xmlns:rdf="http://www.w3.org/1999/02/22-rdf-syntax-ns#"
   xmlns:svg="http://www.w3.org/2000/svg"
   xmlns="http://www.w3.org/2000/svg"
   xmlns:sodipodi="http://sodipodi.sourceforge.net/DTD/sodipodi-0.dtd"
   xmlns:inkscape="http://www.inkscape.org/namespaces/inkscape"
   id="a6ee8617-cc99-4eb9-a93b-e1a7e83c9724"
   data-name="Layer 1"
   width="652"
   height="276"
   viewBox="0 0 652 275.99999"
   version="1.1"
   sodipodi:docname="logo.svg"
   inkscape:version="0.92.4 (5da689c313, 2019-01-14)">
  <metadata
     id="metadata111">
    <rdf:RDF>
      <cc:Work
         rdf:about="">
        <dc:format>image/svg+xml</dc:format>
        <dc:type
           rdf:resource="http://purl.org/dc/dcmitype/StillImage" />
        <dc:title>code typing</dc:title>
      </cc:Work>
    </rdf:RDF>
  </metadata>
  <defs
     id="defs109" />
  <sodipodi:namedview
     pagecolor="#ffffff"
     bordercolor="#666666"
     borderopacity="1"
     objecttolerance="10"
     gridtolerance="10"
     guidetolerance="10"
     inkscape:pageopacity="0"
     inkscape:pageshadow="2"
     inkscape:window-width="1273"
     inkscape:window-height="1008"
     id="namedview107"
     showgrid="false"
     borderlayer="false"
     inkscape:zoom="0.52205882"
     inkscape:cx="362.72419"
     inkscape:cy="8.4314635"
     inkscape:window-x="-7"
     inkscape:window-y="0"
     inkscape:window-maximized="0"
     inkscape:current-layer="a6ee8617-cc99-4eb9-a93b-e1a7e83c9724" />
  <title
     id="title2">code typing</title>
  <polygon
     points="719.6,311.194 749.6,281.294 878,409.294 749.6,537.294 719.6,507.394 818,409.294 "
     id="polygon6"
     style="opacity:0.1"
     transform="translate(-226,-261.294)" />
  <path
     d="m 212.6,154.99962 h 40 v -40 h -40 z m 200.8,-40 h -40 v 40 h 40 z m -120.4,40 h 40 v -40 h -40 z"
     id="path8"
     inkscape:connector-curvature="0"
     style="opacity:0.1" />
  <polygon
     points="384.3,310.194 354.3,280.294 226,408.294 354.4,536.294 384.4,506.394 285.9,408.294 "
     id="polygon10"
     style="opacity:0.1"
     transform="translate(-226,-261.294)" />
  <polygon
     points="719.6,488.394 818,390.294 719.6,292.194 749.6,262.294 878,390.294 749.6,518.294 "
     id="polygon44"
     style="fill:#6c63ff"
     transform="translate(-226,-261.294)" />
  <path
     d="m 212.6,135.99962 h 40 v -40 h -40 z m 200.8,-40 h -40 v 40 h 40 z m -120.4,40 h 40 v -40 h -40 z"
     id="path70"
     inkscape:connector-curvature="0"
     style="fill:#6c63ff" />
  <polygon
     points="384.3,291.194 354.3,261.294 226,389.294 354.4,517.294 384.4,487.394 285.9,389.294 "
     id="polygon80"
     style="fill:#6c63ff"
     transform="translate(-226,-261.294)" />
</svg>
